<svg width="24" height="22" viewBox="0 0 24 22" xmlns="http://www.w3.org/2000/svg">
<path fill="currentColor" fill-rule="evenodd" clip-rule="evenodd" d="M22.9361 21.8182H1.06207C0.68023 21.8182 0.33746 21.6231 0.14508 21.296C-0.0443695 20.974 -0.0482795 20.5861 0.13336 20.2584L11.0709 0.54492C11.2603 0.20373 11.608 0 12.0006 0C12.3931 0 12.7408 0.20374 12.9302 0.54492L23.8677 20.2584C24.0494 20.5863 24.0435 20.9747 23.8531 21.2975C23.6617 21.6235 23.3189 21.8182 22.9361 21.8182L22.9361 21.8182ZM12.0084 16.0245C11.5787 16.0245 11.2086 16.1365 10.9097 16.3572C10.6119 16.5759 10.4605 16.9663 10.4605 17.5172C10.4605 18.043 10.6119 18.4281 10.9097 18.662C11.2125 18.8948 11.5826 19.0129 12.0084 19.0129C12.4244 19.0129 12.7886 18.8948 13.0884 18.662C13.3863 18.4281 13.5377 18.043 13.5377 17.5172C13.5377 16.9663 13.3863 16.5759 13.0884 16.3572C12.7925 16.1365 12.4283 16.0245 12.0084 16.0245ZM10.4976 5.92664L10.9459 14.5104H13.0884L13.5377 5.92664H10.4976Z" />
</svg>
